<mxfile host="app.diagrams.net" modified="2023-11-06T07:52:48.047Z" agent="Mozilla/5.0 (Windows NT 10.0; Win64; x64) AppleWebKit/537.36 (KHTML, like Gecko) Chrome/118.0.0.0 Safari/537.36" etag="NOSjLHpYljhyfWDrSgAi" version="22.0.8" type="github">
  <diagram name="第 1 页" id="Skn9jyZQtTxDvcmhhVVF">
    <mxGraphModel dx="910" dy="477" grid="1" gridSize="10" guides="1" tooltips="1" connect="1" arrows="1" fold="1" page="1" pageScale="1" pageWidth="827" pageHeight="1169" math="0" shadow="0">
      <root>
        <mxCell id="0" />
        <mxCell id="1" parent="0" />
        <mxCell id="q0UO4rsW7yB3ThovCQlN-4" style="edgeStyle=orthogonalEdgeStyle;rounded=0;orthogonalLoop=1;jettySize=auto;html=1;exitX=1;exitY=0.5;exitDx=0;exitDy=0;entryX=0;entryY=0.5;entryDx=0;entryDy=0;" edge="1" parent="1" source="q0UO4rsW7yB3ThovCQlN-1" target="q0UO4rsW7yB3ThovCQlN-3">
          <mxGeometry relative="1" as="geometry" />
        </mxCell>
        <mxCell id="q0UO4rsW7yB3ThovCQlN-1" value="" style="strokeWidth=2;dashed=0;align=center;fontSize=12;shape=rect;verticalLabelPosition=bottom;verticalAlign=top;fillColor=#c0f5a9;fontColor=default;rounded=1;" vertex="1" parent="1">
          <mxGeometry x="100" y="190" width="150" height="90" as="geometry" />
        </mxCell>
        <mxCell id="q0UO4rsW7yB3ThovCQlN-2" value="&lt;font style=&quot;font-size: 21px&quot;&gt;MDL&lt;/font&gt;" style="text;html=1;resizable=0;autosize=1;align=center;verticalAlign=middle;points=[];fillColor=none;strokeColor=none;rounded=0;fontColor=default;" vertex="1" parent="1">
          <mxGeometry x="140" y="215" width="70" height="40" as="geometry" />
        </mxCell>
        <mxCell id="q0UO4rsW7yB3ThovCQlN-5" style="edgeStyle=orthogonalEdgeStyle;rounded=0;orthogonalLoop=1;jettySize=auto;html=1;exitX=1;exitY=0.5;exitDx=0;exitDy=0;" edge="1" parent="1" source="q0UO4rsW7yB3ThovCQlN-3">
          <mxGeometry relative="1" as="geometry">
            <mxPoint x="610" y="235" as="targetPoint" />
          </mxGeometry>
        </mxCell>
        <mxCell id="q0UO4rsW7yB3ThovCQlN-3" value="&lt;font style=&quot;font-size: 18px;&quot;&gt;Parser解析器&lt;/font&gt;" style="ellipse;whiteSpace=wrap;html=1;aspect=fixed;fillColor=#dae8fc;strokeColor=#6c8ebf;" vertex="1" parent="1">
          <mxGeometry x="370" y="177.5" width="115" height="115" as="geometry" />
        </mxCell>
        <mxCell id="q0UO4rsW7yB3ThovCQlN-6" value="" style="strokeWidth=2;dashed=0;align=center;fontSize=12;shape=rect;verticalLabelPosition=bottom;verticalAlign=top;fillColor=#ffe6cc;rounded=1;strokeColor=#d79b00;" vertex="1" parent="1">
          <mxGeometry x="610" y="190" width="150" height="90" as="geometry" />
        </mxCell>
        <mxCell id="q0UO4rsW7yB3ThovCQlN-7" value="&lt;font style=&quot;font-size: 21px&quot;&gt;可执行代码&lt;/font&gt;" style="text;html=1;resizable=0;autosize=1;align=center;verticalAlign=middle;points=[];fillColor=none;strokeColor=none;rounded=0;fontColor=default;" vertex="1" parent="1">
          <mxGeometry x="620" y="215" width="130" height="40" as="geometry" />
        </mxCell>
      </root>
    </mxGraphModel>
  </diagram>
</mxfile>
